<?xml version="1.0" encoding="iso-8859-1"?>
<!-- Uploaded to: SVG Repo, www.svgrepo.com, Generator: SVG Repo Mixer Tools -->
<svg height="800px" width="800px" version="1.1" id="Capa_1" xmlns="http://www.w3.org/2000/svg" xmlns:xlink="http://www.w3.org/1999/xlink" 
	 viewBox="0 0 480.252 480.252" xml:space="preserve">
<g>
	<g>
		<g>
			<path style="fill:#010002;" d="M236.151,144.392c-49.056,0-88.967,39.911-88.967,88.967c0,49.04,39.911,88.983,88.967,88.983
				s88.951-39.944,88.951-88.983C325.102,184.303,285.207,144.392,236.151,144.392z"/>
		</g>
		<g>
			<path style="fill:#010002;" d="M247.084,105.082c3.154,0,5.723-2.585,5.723-5.763V10.018c0-3.17-2.569-5.739-5.723-5.739
				c-3.186,0-5.763,2.569-5.763,5.739v89.292C241.321,102.497,243.906,105.082,247.084,105.082z"/>
		</g>
		<g>
			<path style="fill:#010002;" d="M474.497,227.604h-89.309c-3.138,0-5.706,2.585-5.706,5.755c0,3.178,2.569,5.763,5.706,5.763
				h89.309c3.17,0,5.755-2.585,5.755-5.763C480.252,230.189,477.668,227.604,474.497,227.604z"/>
		</g>
		<g>
			<path style="fill:#010002;" d="M100.746,233.359c0-3.17-2.569-5.755-5.755-5.755H5.723c-3.154,0-5.723,2.585-5.723,5.755
				c0,3.178,2.569,5.763,5.723,5.763h89.268C98.177,239.122,100.746,236.537,100.746,233.359z"/>
		</g>
		<g>
			<path style="fill:#010002;" d="M247.084,375.203c-3.186,0-5.763,2.552-5.763,5.698v89.317c0,3.113,2.642,5.755,5.763,5.755
				c3.154,0,5.723-2.585,5.723-5.755v-89.317C252.815,377.763,250.238,375.203,247.084,375.203z"/>
		</g>
		<g>
			<path style="fill:#010002;" d="M347.992,144.254l63.118-63.118c1.114-1.114,1.723-2.569,1.707-4.113
				c-0.008-1.52-0.593-2.918-1.666-3.975c-1.122-1.122-2.544-1.707-4.081-1.707c-1.52,0-2.943,0.569-3.999,1.642l-63.2,63.2
				c-1.097,1.097-1.683,2.52-1.683,4.016c0,1.536,0.61,2.999,1.707,4.097C342.01,146.367,345.822,146.424,347.992,144.254z"/>
		</g>
		<g>
			<path style="fill:#010002;" d="M350.878,328.626c-1.114-1.146-2.528-1.723-4.056-1.723s-2.943,0.577-4.016,1.666
				c-1.13,1.138-1.707,2.552-1.723,4.089c0,1.528,0.593,2.999,1.683,4.081l63.118,63.061c2.902,2.943,5.17,2.999,8.145,0.033
				c2.235-2.276,2.26-5.836,0.008-8.055L350.878,328.626z"/>
		</g>
		<g>
			<path style="fill:#010002;" d="M137.568,131.468c2.203,2.187,5.95,2.154,8.202-0.041c1-1.016,1.585-2.447,1.585-3.975
				c0-1.536-0.585-2.975-1.642-4.032l-63.183-63.2c-1.081-1.073-2.528-1.683-4.056-1.683c-1.528,0-2.975,0.61-4.072,1.691
				c-2.203,2.235-2.203,5.877,0.024,8.12L137.568,131.468z"/>
		</g>
		<g>
			<path style="fill:#010002;" d="M144.827,333.544c-1.544,0-2.975,0.577-4.048,1.666l-63.143,63.167
				c-2.268,2.243-2.268,5.836,0,8.112c2.658,2.699,5.422,2.723,8.088,0.033l63.183-63.175c2.235-2.243,2.235-5.893-0.041-8.194
				C147.851,334.154,146.379,333.544,144.827,333.544z"/>
		</g>
	</g>
</g>
</svg>